PathFileType	4	(X/Y/Z)	C:/Users/beibeiliu/ov580/test_trc/User1\sequence.25_training_dense_right.trc
DataRate	CameraRate	NumFrames	NumMarkers	Units	OrigDataRate	OrigDataStartFrame	OrigNumFrames
120	120	14	19	mm	120	182	242
Frame#	Time	ThumbCMC			ThumbMCP			ThumbIP			ThumbTip			IndexMCP			IndexPIP			IndexTip			MiddleMCP			MiddlePIP			MiddleTip			RingMCP			RingPIP			RingTip			PinkyMCP			PinkyPIP			PinkyTip			BackHand1			BackHand2			BackHand3	
		X0	Y0	Z0	X1	Y1	Z1	X2	Y2	Z2	X3	Y3	Z3	X4	Y4	Z4	X5	Y5	Z5	X6	Y6	Z6	X7	Y7	Z7	X8	Y8	Z8	X9	Y9	Z9	X10	Y10	Z10	X11	Y11	Z11	X12	Y12	Z12	X13	Y13	Z13	X14	Y14	Z14	X15	Y15	Z15	X16	Y16	Z16	X17	Y17	Z17	X18	Y18	Z18	
181	1.50833	108.295	-31.909	58.6679	96.7428	-28.0238	22.8011	106.446	-24.1304	-3.5037	125.003	-28.5521	-25.5871	126.728	16.4147	-8.17807	132.697	25.1236	-33.71	140.546	32.0558	-54.7679	143.824	0.270728	-24.6959	133.331	-5.3767	-54.8909	118.88	-20.6148	-82.6537	150.164	-36.6061	-22.2229	127.845	-64.2955	-16.0641	123.54	-62.0895	16.2943	162.717	-52.9856	-13.9668	139.73	-67.4773	-4.03406	134.545	-61.8195	25.092	169.249	-18.5454	35.7114	173.13	-30.1002	68.1084	142.767	-11.783	59.1991	
182	1.51667	108.676	-29.1712	59.0219	99.6822	-27.1701	23.7951	113.186	-18.7236	-8.85039	132.765	-26.9486	-28.117	133.665	19.5164	-12.1018	141.26	25.2379	-33.2771	150.582	30.7268	-54.5943	147.727	0.738774	-24.4738	141.622	-6.67844	-53.6627	124.313	-20.8359	-84.0545	152.304	-33.3652	-21.4122	129.714	-63.3474	-17.7068	129.507	-63.8997	16.5502	165.483	-52.7813	-14.9269	142.176	-65.6714	-4.6039	136.147	-59.4209	23.9163	174.546	-16.9286	32.5489	177.572	-33.651	68.9604	145.409	-7.13873	59.5038	
183	1.525	115.005	-27.2592	57.1496	105.326	-22.093	20.0029	115.806	-16.7034	-8.53246	137.29	-26.2333	-29.3213	143.228	16.8143	-9.17568	147.214	26.4518	-33.5953	157.306	33.6637	-54.7523	156.876	-2.24173	-27.0778	147.512	-7.78873	-57.6976	134.739	-23.8328	-84.7881	155.503	-37.897	-25.2961	130.861	-61.5273	-17.691	127.461	-61.9832	13.9795	172.423	-54.815	-12.132	145.253	-67.8128	-5.61313	140.417	-54.3766	25.8614	179.801	-19.6271	33.4192	179.279	-34.4806	69.7359	149.075	-6.31387	56.7882	
184	1.53333	117.7	-20.5957	54.1774	113.41	-16.6964	18.5116	124.739	-13.7665	-10.2469	143.918	-25.3321	-26.7914	151.147	19.3304	-13.8905	160.287	25.7206	-36.876	172.074	29.7059	-56.2929	164.713	-4.34279	-30.3352	157.848	-11.3387	-55.4738	143.233	-24.1461	-87.1605	161.493	-37.5326	-22.5022	132.789	-58.0269	-20.2206	128.652	-62.3327	13.4678	173.747	-54.4257	-11.3084	146.975	-70.1856	-6.00104	141.518	-58.9465	24.6336	182.452	-23.399	34.001	179.908	-32.9834	67.8573	154.991	-8.24887	55.9305	
185	1.54167	123.206	-19.8001	54.1633	115.06	-13.2794	16.8046	132.37	-13.8683	-8.91659	150.365	-26.2389	-28.9908	163.867	17.2481	-16.87	171.36	21.6861	-35.4081	188.308	25.3393	-60.4909	171.069	-5.27163	-32.5502	164.944	-15.165	-59.223	153.4	-25.4559	-84.2852	164.462	-42.3609	-24.6416	140.41	-59.7238	-22.4737	126.965	-59.8765	10.5995	177.119	-56.9799	-10.552	147.369	-67.3255	-5.29598	142.004	-58.9319	23.2708	188.499	-26.1667	32.3249	182.931	-40.1265	71.0724	160.868	-8.2398	57.4644	
186	1.55	127.514	-16.9731	53.5732	123.034	-9.92273	14.1923	141.703	-12.7759	-11.8395	156.442	-27.1566	-30.9812	172.696	14.3338	-14.6247	182.859	18.101	-38.8573	198.583	18.5701	-60.2569	179.835	-9.78762	-29.3091	172.433	-15.3294	-55.5307	159.994	-28.0005	-87.5443	170.715	-46.1547	-24.2923	142.38	-59.8425	-21.091	129.042	-58.9369	9.92182	177.969	-66.2621	-11.5821	149.606	-66.171	-4.90583	141.626	-55.8419	22.7198	192.43	-31.5472	35.5224	187.684	-42.2188	70.8032	169.336	-7.10233	52.7304	
187	1.55833	132.931	-14.7041	52.9181	132.358	-9.7217	13.5954	143.956	-13.2949	-13.4691	159.302	-29.8059	-33.5818	184.632	6.69453	-14.6339	194.822	13.43	-40.6473	209.617	9.17203	-59.3388	187.087	-17.5848	-29.4228	176.414	-21.7482	-59.9009	165.499	-34.5673	-86.8872	173.01	-48.6111	-23.7831	143.403	-57.8495	-21.5147	131.091	-57.5538	13.2498	176.593	-71.2835	-10.3449	147.897	-71.9798	-1.21363	143.113	-56.815	28.4128	199.187	-39.7698	37.112	189.921	-44.5116	69.369	175.254	-10.6017	52.3038	
188	1.56667	139.088	-13.0478	51.2454	134.346	-6.50526	10.9454	152.527	-14.8558	-15.7185	162.815	-33.3024	-34.7725	193.579	3.27252	-17.8591	204.038	2.06681	-41.4859	218.162	-1.62034	-60.2524	192.542	-23.8231	-32.7204	184.829	-33.0288	-55.6158	168.81	-41.9149	-87.2697	175.69	-51.762	-21.9577	143.738	-61.513	-20.6121	132.21	-58.4125	13.2542	177.592	-71.2999	-7.88778	147.44	-69.0898	-1.6774	144.813	-53.6956	28.1147	198.744	-46.5636	38.4668	190.878	-47.2413	69.3616	181.917	-17.565	56.0525	
189	1.575	143.977	-6.4102	46.3266	142.564	-5.72609	7.32574	156.241	-16.6038	-20.7958	165.461	-38.7165	-34.2137	197.356	-3.59487	-17.4194	209.149	-3.38544	-43.3378	221.259	-7.67613	-62.3673	195.452	-30.7963	-33.0325	183.785	-35.3112	-61.2571	169.737	-44.3987	-85.1844	172.894	-56.6051	-23.4684	141.133	-58.6098	-19.8228	131.703	-57.8959	12.0441	176.413	-78.8519	-5.59088	146.371	-67.8192	-0.943231	145.211	-54.8112	24.8445	200.754	-51.7354	37.7107	189.521	-50.3332	71.3683	183.877	-16.3055	52.7688	
190	1.58333	146.785	-6.67671	48.8084	145.561	-6.49726	7.07536	154.467	-18.3735	-18.9764	164.009	-42.3798	-36.1739	200.948	-7.99354	-21.8584	209.591	-11.2423	-44.5521	223.299	-18.2386	-66.1194	195.061	-37.0479	-30.7534	181.131	-44.0409	-60.9818	162.668	-52.3043	-86.2292	169.232	-59.2916	-22.9876	138.612	-58.76	-19.2241	128.486	-52.7769	15.4935	172.821	-77.1497	-5.99851	142.737	-68.5199	-1.945	143.446	-54.335	25.5819	199.394	-56.6678	34.0066	188.301	-53.664	72.4406	187.572	-17.4935	51.2567	
191	1.59167	154.211	-6.74539	44.3628	145.272	-7.17201	10.5177	154.844	-18.8387	-22.5119	156.184	-39.6049	-38.0933	200.557	-17.9351	-27.5448	206.285	-19.6775	-47.445	215.763	-24.9788	-67.2121	188.5	-44.4327	-37.2705	175.376	-48.1221	-59.538	153.218	-51.968	-84.4043	167.278	-63.8251	-21.4637	133.379	-56.6521	-17.9362	125.672	-47.4751	14.0227	162.535	-82.6378	-6.89709	134.846	-69.9182	1.1708	144.029	-50.074	27.3622	198.155	-56.5804	33.5386	187.855	-54.5298	69.2264	190.904	-24.7281	46.065	
192	1.6	156.776	-3.35091	44.3315	145.111	-2.45248	6.26598	153.264	-19.116	-19.5053	150.497	-39.1578	-37.9952	196.09	-17.5297	-29.8032	198.454	-26.6409	-49.0403	208.803	-33.973	-74.6888	182.088	-47.8603	-38.0941	164.299	-48.2787	-61.5699	141.561	-51.0282	-83.9021	156.59	-61.1053	-23.7588	126.404	-56.861	-16.1337	123.3	-41.3635	17.1416	153.742	-77.2649	-7.38604	128.703	-64.2893	3.74428	137.123	-50.6565	30.555	192.604	-60.9013	30.7918	188.567	-55.684	63.9256	191.77	-23.8111	48.1111	
193	1.60833	156.663	-4.11891	47.0376	145.952	-3.26554	5.17446	144.566	-15.3441	-17.7046	143.142	-38.5918	-37.8764	190.367	-20.6497	-29.9812	190.965	-26.4104	-53.2715	197.09	-35.0091	-79.5294	173.522	-46.3643	-40.0808	156.979	-47.3604	-59.5984	130.39	-48.9734	-79.918	153.075	-63.2524	-21.5232	120.271	-49.0384	-13.394	120.976	-38.6747	20.2513	146.146	-81.5787	-3.54522	121.703	-61.6329	8.52662	136.759	-48.9708	34.4171	190.439	-65.4789	26.0977	187.401	-61.0931	65.9791	191.56	-26.2755	45.4423	
194	1.61667	157.391	0.132501	44.6979	142.172	-0.19236	6.38704	141.392	-15.1168	-20.3369	135.998	-36.9032	-34.8062	183.983	-25.1684	-36.2604	183.277	-28.6078	-58.1501	184.848	-41.1614	-78.9078	164.749	-49.5543	-41.9796	144.043	-51.1226	-60.6512	117.553	-49.6179	-77.6682	143.205	-61.1602	-21.5775	114.111	-50.2146	-10.7575	117.763	-40.3542	20.8901	137.266	-73.6709	-5.07947	116.449	-61.5902	8.89335	132.956	-44.5867	31.2706	184.306	-62.9027	23.6599	187.268	-59.2291	61.7418	192.007	-25.8382	39.0522	
